<svg class="css-ze2te4 css-qd6ojx" viewBox="0 0 100 100"><g transform="translate(0, 0) scale(2.0833333333333335)" class="css-ewe3d9" fill="#15eda3"><defs xmlns="http://www.w3.org/2000/svg"></defs><title xmlns="http://www.w3.org/2000/svg">conversation</title><g xmlns="http://www.w3.org/2000/svg" data-name="Livello 2"><g><rect width="48" height="48" style="fill: none;"></rect><path d="M21.53,33.81H10a.75.75,0,0,1-.64-1.15l2.35-3.76a12.28,12.28,0,1,1,9.82,4.91Zm-10.18-1.5H21.53a10.8,10.8,0,1,0-8.32-3.94.77.77,0,0,1,0,.88Z"></path><path d="M26.47,18.33H16.59a.75.75,0,0,1,0-1.5h9.88a.75.75,0,0,1,0,1.5Z"></path><path d="M22.52,26.23H16.59a.75.75,0,0,1,0-1.5h5.93a.75.75,0,0,1,0,1.5Z"></path><path d="M26.47,22.28H16.59a.75.75,0,0,1,0-1.5h9.88a.75.75,0,0,1,0,1.5Z"></path><path d="M38,38.75H26.47A12.36,12.36,0,0,1,20.14,37a.76.76,0,0,1-.25-1,.75.75,0,0,1,1-.26,10.72,10.72,0,0,0,5.55,1.54H36.65l-1.91-3.06a.75.75,0,0,1,0-.87,10.77,10.77,0,0,0,.92-12.4.75.75,0,0,1,.26-1,.76.76,0,0,1,1,.25,12.29,12.29,0,0,1-.71,13.7l2.35,3.76A.75.75,0,0,1,38,38.75Z"></path></g></g></g></svg>