<svg viewBox="0 0 390 120" preserveAspectRatio="xMidYMid meet" class="css-8aabad" id="geccahdg"><defs id="SvgjsDefs1458"></defs><g id="SvgjsG1459" featurekey="xG21Y3-0" transform="matrix(2.0833333333333335,0,0,2.0833333333333335,20,20)" fill="#fff"><defs xmlns="http://www.w3.org/2000/svg"></defs><title xmlns="http://www.w3.org/2000/svg">conversation</title><g xmlns="http://www.w3.org/2000/svg" data-name="Livello 2"><g><rect width="48" height="48" style="fill: none;"></rect><path d="M21.53,33.81H10a.75.75,0,0,1-.64-1.15l2.35-3.76a12.28,12.28,0,1,1,9.82,4.91Zm-10.18-1.5H21.53a10.8,10.8,0,1,0-8.32-3.94.77.77,0,0,1,0,.88Z"></path><path d="M26.47,18.33H16.59a.75.75,0,0,1,0-1.5h9.88a.75.75,0,0,1,0,1.5Z"></path><path d="M22.52,26.23H16.59a.75.75,0,0,1,0-1.5h5.93a.75.75,0,0,1,0,1.5Z"></path><path d="M26.47,22.28H16.59a.75.75,0,0,1,0-1.5h9.88a.75.75,0,0,1,0,1.5Z"></path><path d="M38,38.75H26.47A12.36,12.36,0,0,1,20.14,37a.76.76,0,0,1-.25-1,.75.75,0,0,1,1-.26,10.72,10.72,0,0,0,5.55,1.54H36.65l-1.91-3.06a.75.75,0,0,1,0-.87,10.77,10.77,0,0,0,.92-12.4.75.75,0,0,1,.26-1,.76.76,0,0,1,1,.25,12.29,12.29,0,0,1-.71,13.7l2.35,3.76A.75.75,0,0,1,38,38.75Z"></path></g></g></g><g id="SvgjsG1460" featurekey="n48U4P-0" transform="matrix(3.6158511286293136,0,0,3.6158511286293136,135.22714571848047,23.31733402704826)" fill="#fff"><path d="M4.46 5.720000000000001 l-0.000019531 8.94 c0 1.0533 0.23666 1.8233 0.71 2.31 s1.2167 0.73 2.23 0.73 c1.0933 0 1.86 -0.24334 2.3 -0.73 s0.66 -1.2567 0.66 -2.31 l0 -8.94 l3.14 0 l0 8.94 c0 1.7867 -0.51 3.18 -1.53 4.18 s-2.5434 1.5 -4.57 1.5 c-2.0666 0 -3.5966 -0.5 -4.59 -1.5 s-1.49 -2.3934 -1.49 -4.18 l0 -8.94 l3.14 0 z M21.84 9.38 c1.32 0 2.2766 0.33338 2.87 1 s0.89 1.7267 0.89 3.18 l0 6.44 l-2.84 0 l0 -5.86 c0 -0.85334 -0.13666 -1.4867 -0.41 -1.9 s-0.74334 -0.62 -1.41 -0.62 c-0.77334 0 -1.3333 0.23334 -1.68 0.7 s-0.52 1.2333 -0.52 2.3 l0 5.38 l-2.84 0 l0 -10.34 l2.7 0 l0 1.44 l0.06 0 c0.70666 -1.1467 1.7667 -1.72 3.18 -1.72 z M32.78 9.38 c1.6533 0 2.96 0.50334 3.92 1.51 s1.44 2.3234 1.44 3.95 c0 1.64 -0.49 2.9566 -1.47 3.95 s-2.2766 1.49 -3.89 1.49 c-1.64 0 -2.94 -0.50334 -3.9 -1.51 s-1.44 -2.3166 -1.44 -3.93 c0 -1.6667 0.49 -2.9934 1.47 -3.98 s2.27 -1.48 3.87 -1.48 z M30.28 14.84 c0 1.0533 0.21334 1.8666 0.64 2.44 s1.0467 0.86 1.86 0.86 c0.84 0 1.47 -0.29334 1.89 -0.88 s0.63 -1.3933 0.63 -2.42 c0 -1.0667 -0.21666 -1.8867 -0.65 -2.46 s-1.0633 -0.86 -1.89 -0.86 c-0.8 0 -1.4133 0.28666 -1.84 0.86 s-0.64 1.3933 -0.64 2.46 z M47.4 5.720000000000001 l5.34 14.28 l-3.26 0 l-1.08 -3.18 l-5.34 0 l-1.12 3.18 l-3.18 0 l5.42 -14.28 l3.22 0 z M45.739999999999995 9.24 l-1.86 5.24 l3.7 0 l-1.8 -5.24 l-0.04 0 z M60.44 5.720000000000001 c1.52 0 2.72 0.41334 3.6 1.24 s1.32 1.94 1.32 3.34 c0 1.4133 -0.44 2.53 -1.32 3.35 s-2.0734 1.23 -3.58 1.23 l-3.34 0 l0 5.12 l-3.14 0 l0 -14.28 l6.46 0 z M59.620000000000005 12.440000000000001 c0.90666 0 1.5833 -0.16666 2.03 -0.5 s0.67 -0.88 0.67 -1.64 c0 -0.73334 -0.21666 -1.2733 -0.65 -1.62 s-1.11 -0.52 -2.03 -0.52 l-2.52 0 l0 4.28 l2.5 0 z M70.46 5.720000000000001 l0 14.28 l-3.14 0 l0 -14.28 l3.14 0 z"></path></g></svg>